<?xml version="1.0" encoding="utf-8"?>
<!-- Generator: Adobe Illustrator 24.2.1, SVG Export Plug-In . SVG Version: 6.00 Build 0)  -->
<svg version="1.1" id="Layer_1" xmlns="http://www.w3.org/2000/svg" xmlns:xlink="http://www.w3.org/1999/xlink" x="0px" y="0px"
	 viewBox="0 0 600 135" style="enable-background:new 0 0 600 135;" xml:space="preserve">
<style type="text/css">
	.st0{fill:#F7DC48;}
</style>
<g>
	<g>
		<path class="st0" d="M162.04,49.61H141.7V37.63h55.39v11.99h-20.34v51.58h-14.71V49.61z"/>
		<path class="st0" d="M233.23,51.61v13.08c-1.18-0.09-2.09-0.18-3.18-0.18c-7.81,0-12.98,4.27-12.98,13.62v23.06H202.9V52.34h13.53
			v6.45C219.88,54.06,225.69,51.61,233.23,51.61z"/>
		<path class="st0" d="M284.63,73.31v27.88h-13.26V95.1c-2.63,4.45-7.72,6.81-14.89,6.81c-11.44,0-18.25-6.36-18.25-14.8
			c0-8.63,6.08-14.62,20.98-14.62h11.26c0-6.08-3.63-9.63-11.26-9.63c-5.18,0-10.53,1.73-14.08,4.54l-5.08-9.9
			c5.36-3.81,13.26-5.9,21.07-5.9C276,51.61,284.63,58.51,284.63,73.31z M270.46,85.75v-4.99h-9.72c-6.63,0-8.72,2.45-8.72,5.72
			c0,3.54,3,5.9,7.99,5.9C264.74,92.38,268.82,90.2,270.46,85.75z"/>
		<path class="st0" d="M347.37,73.22v27.97H333.2V75.4c0-7.9-3.63-11.53-9.9-11.53c-6.81,0-11.71,4.18-11.71,13.17v24.15h-14.17
			V52.34h13.53v5.72c3.81-4.18,9.53-6.45,16.16-6.45C338.65,51.61,347.37,58.33,347.37,73.22z"/>
		<path class="st0" d="M355.45,96.65l4.72-10.17c4.36,2.81,10.99,4.72,16.98,4.72c6.54,0,8.99-1.73,8.99-4.45
			c0-7.99-29.51,0.18-29.51-19.34c0-9.26,8.35-15.8,22.61-15.8c6.72,0,14.17,1.54,18.8,4.27l-4.72,10.08
			c-4.81-2.72-9.63-3.63-14.07-3.63c-6.36,0-9.08,2-9.08,4.54c0,8.35,29.51,0.27,29.51,19.52c0,9.08-8.44,15.53-23.06,15.53
			C368.34,101.92,359.99,99.64,355.45,96.65z"/>
		<path class="st0" d="M423.91,53.43h12.53v10.9h-12.17v36.87h-14.17V64.32h-7.54v-10.9h7.54v-2.18c0-10.99,6.72-18.16,18.89-18.16
			c4,0,8.17,0.82,10.81,2.63l-3.72,10.26c-1.54-1.09-3.54-1.73-5.72-1.73c-4.18,0-6.45,2.27-6.45,7.08V53.43z"/>
		<path class="st0" d="M490.47,80.76h-36.96c1.36,6.08,6.54,9.81,13.98,9.81c5.18,0,8.9-1.54,12.26-4.72l7.54,8.17
			c-4.54,5.18-11.35,7.9-20.16,7.9c-16.89,0-27.88-10.62-27.88-25.15c0-14.62,11.17-25.15,26.06-25.15
			c14.35,0,25.43,9.63,25.43,25.33C490.74,78.03,490.56,79.58,490.47,80.76z M453.33,72.49h24.06c-1-6.17-5.63-10.17-11.99-10.17
			C458.96,62.32,454.33,66.23,453.33,72.49z"/>
		<path class="st0" d="M530.51,51.61v13.08c-1.18-0.09-2.09-0.18-3.18-0.18c-7.81,0-12.99,4.27-12.99,13.62v23.06h-14.17V52.34
			h13.53v6.45C517.16,54.06,522.98,51.61,530.51,51.61z"/>
		<path class="st0" d="M581.91,73.31v27.88h-13.26V95.1c-2.63,4.45-7.72,6.81-14.89,6.81c-11.44,0-18.25-6.36-18.25-14.8
			c0-8.63,6.08-14.62,20.98-14.62h11.26c0-6.08-3.63-9.63-11.26-9.63c-5.18,0-10.53,1.73-14.08,4.54l-5.08-9.9
			c5.36-3.81,13.26-5.9,21.07-5.9C573.28,51.61,581.91,58.51,581.91,73.31z M567.74,85.75v-4.99h-9.72c-6.63,0-8.72,2.45-8.72,5.72
			c0,3.54,3,5.9,7.99,5.9C562.02,92.38,566.11,90.2,567.74,85.75z"/>
	</g>
</g>
<path class="st0" d="M122.75,15.9h-87.2c-4.42,0-8,3.58-8,8v87.2c0,4.42,3.58,8,8,8h87.2c4.42,0,8-3.58,8-8V23.9
	C130.75,19.48,127.17,15.9,122.75,15.9z M122.07,88.01c0,1.14-0.92,2.06-2.06,2.06H75.58c-1.1,0-1.99,0.89-2,1.99l-0.06,9.9
	c-0.01,1.34-1.46,2.18-2.63,1.51l-16.95-9.65l-16.85-9.86c-1.15-0.68-1.15-2.35,0-3.03l16.85-9.87l16.95-9.65
	c1.17-0.66,2.62,0.17,2.63,1.52l0.07,10.33c0.01,1.1,0.9,1.98,2,1.98h44.42c1.13,0,2.06,0.92,2.06,2.06V88.01z M121.21,54.07
	l-16.85,9.86l-16.95,9.65c-1.17,0.67-2.62-0.17-2.63-1.51l-0.06-9.9c-0.01-1.1-0.9-1.99-2-1.99H38.29c-1.14,0-2.06-0.93-2.06-2.06
	V47.41c0-1.14,0.93-2.06,2.06-2.06h44.42c1.1,0,1.99-0.89,2-1.99l0.07-10.32c0.01-1.35,1.46-2.18,2.63-1.52l16.95,9.65l16.85,9.87
	C122.36,51.72,122.36,53.39,121.21,54.07z"/>
</svg>
